# xmcd
#
# Track frame offsets:
# 187
# 15412
# 31087
# 55537
# 73087
# 87412
# 102412
# 117337
# 136762
# 155362
#
# Disc length: 2272 seconds
#
#
# Revision: 0
# Processed by: cddbd v1.5.1PL2 Copyright (c) Steve Scherf et al.
# Submitted via: CDLP Version 5
#
DISCID=7508de0a
DTITLE=H2O - WATERLAND
DYEAR=1900
DGENRE=Misc
TTITLE0=ローレライ
TTITLE1=泣かないでＬｉｔｔｌｅ　Bｉｒｄ
TTITLE2=ブルーベリーの頃
TTITLE3=恋の冒険小説
TTITLE4=僕等のダイアリー
TTITLE5=TONIGHT
TTITLE6=MY LADY'S GONE
TTITLE7=DOES SHE NEED ME
TTITLE8=SPANISH CLASS
TTITLE9=LORELEI
EXTD=
EXTT0=
EXTT1=
EXTT2=
EXTT3=
EXTT4=
EXTT5=
EXTT6=
EXTT7=
EXTT8=
EXTT9=
PLAYORDER=
